<?xml version="1.0" standalone="no"?>
<!DOCTYPE svg PUBLIC "-//W3C//DTD SVG 20010904//EN"
 "http://www.w3.org/TR/2001/REC-SVG-20010904/DTD/svg10.dtd">
<svg version="1.0" xmlns="http://www.w3.org/2000/svg"
 width="200.000000pt" height="200.000000pt" viewBox="0 0 200.000000 200.000000"
 preserveAspectRatio="xMidYMid meet">
<metadata>
Created by potrace 1.14, written by Peter Selinger 2001-2017
</metadata>
<g transform="translate(0.000000,200.000000) scale(0.100000,-0.100000)"
fill="#000000" stroke="none">
<path d="M810 1763 c0 -16 -3 -44 -6 -64 -5 -32 -11 -38 -53 -52 -25 -8 -60
-21 -77 -28 -30 -12 -34 -10 -78 25 l-46 38 -130 -128 -130 -129 38 -44 38
-44 -30 -73 c-33 -77 -43 -84 -122 -84 l-34 0 0 -179 0 -179 63 -7 62 -7 31
-74 31 -73 -33 -40 c-19 -21 -34 -43 -34 -48 0 -5 56 -65 125 -132 82 -81 129
-120 137 -115 7 4 30 21 50 37 l36 29 65 -26 c36 -14 70 -26 75 -26 14 0 22
-25 22 -65 0 -65 1 -65 126 -65 l114 0 0 95 0 95 103 0 c101 0 104 -1 115 -25
28 -61 133 -85 199 -44 62 39 82 123 43 186 -51 85 -190 84 -246 -2 -16 -24
-20 -25 -115 -25 l-99 0 0 45 c0 44 -1 45 -33 45 -173 0 -336 99 -410 249 -30
61 -32 72 -32 171 0 99 2 110 32 171 74 150 237 249 410 249 32 0 33 1 33 45
l0 45 99 0 c99 0 100 0 121 -30 28 -40 69 -60 122 -60 139 0 191 177 75 249
-66 41 -171 17 -199 -44 -11 -24 -14 -25 -115 -25 l-103 0 0 95 0 95 -120 0
-120 0 0 -27z"/>
<path d="M1613 1491 c-43 -20 -65 -51 -78 -109 -6 -27 -17 -38 -68 -65 l-62
-32 -260 -5 c-242 -6 -263 -7 -305 -28 -115 -56 -175 -146 -174 -261 1 -107
54 -190 152 -238 l57 -28 265 -5 265 -5 62 -32 c51 -27 62 -38 68 -65 13 -60
35 -89 81 -110 53 -23 109 -18 149 14 131 103 6 298 -147 230 l-45 -20 -74 37
-74 36 -260 5 c-254 5 -261 6 -305 30 -132 74 -132 246 0 320 44 24 51 25 305
30 l260 5 73 37 73 36 46 -20 c97 -43 203 21 203 122 0 101 -111 166 -207 121z"/>
<path d="M1613 1121 c-25 -12 -48 -32 -58 -50 l-16 -31 -319 0 -320 0 0 -40 0
-40 320 0 319 0 16 -31 c21 -40 94 -73 142 -66 100 17 153 122 103 204 -40 66
-115 88 -187 54z"/>
</g>
</svg>
